<svg width="65" height="63" viewBox="0 0 65 63" fill="none" xmlns="http://www.w3.org/2000/svg">
<path d="M32.5 6C26.4871 6 20.8233 8.32759 16.5948 12.5948C12.3276 16.8233 10 22.4871 10 28.5C10 34.5129 12.3276 40.1767 16.5948 44.4052C20.8621 48.6724 26.4871 51 32.5 51C38.5129 51 44.1767 48.6724 48.4052 44.4052C52.6724 40.1379 55 34.5129 55 28.5C55 22.4871 52.6724 16.8233 48.4052 12.5948C44.1767 8.32759 38.5129 6 32.5 6ZM32.5 8.32759C37.8922 8.32759 42.9356 10.4221 46.7762 14.2238C50.6167 18.0256 52.6724 23.1078 52.6724 28.5C52.6724 33.8922 50.5779 38.9356 46.7762 42.7762C42.9356 46.5779 37.8922 48.6724 32.5 48.6724C27.1078 48.6724 22.0644 46.5779 18.2238 42.7762C14.3833 38.9744 12.3276 33.8922 12.3276 28.5C12.3276 23.1078 14.4221 18.0644 18.2238 14.2238C22.0256 10.3833 27.1078 8.32759 32.5 8.32759ZM27.2872 22.0991C26.9914 22.0991 26.7004 22.2157 26.4871 22.4484C26.0216 22.9139 26.0216 23.6507 26.4871 24.0774L30.871 28.5L26.4484 32.8839C25.9829 33.3494 25.9829 34.0862 26.4484 34.5129C26.6812 34.7457 26.9914 34.8622 27.2629 34.8622C27.5345 34.8622 27.8447 34.7457 28.0774 34.5129L32.5 30.129L36.8839 34.5129C37.1167 34.7457 37.4269 34.8622 37.6984 34.8622C37.97 34.8622 38.2802 34.7457 38.5129 34.5129C38.9784 34.0474 38.9784 33.3106 38.5129 32.8839L34.129 28.5L38.5129 24.1161C38.9784 23.6506 38.9783 22.9139 38.5516 22.4484C38.0861 21.9829 37.3493 21.9829 36.9226 22.4484L32.5 26.871L28.1161 22.4484C27.8833 22.2157 27.583 22.0991 27.2872 22.0991Z" fill="#7F63F4"/>
</svg>