<svg width="70" height="70" viewBox="0 0 70 70" fill="none" xmlns="http://www.w3.org/2000/svg">
<g clip-path="url(#clip0)">
<g filter="url(#filter0_d)">
<path d="M34.9167 12C22.2805 12 12 22.2805 12 34.9167C12 47.5528 22.2805 57.8333 34.9167 57.8333C47.5528 57.8333 57.8333 47.5528 57.8333 34.9167C57.8333 22.2805 47.5528 12 34.9167 12ZM34.9167 15.4375C45.6951 15.4375 54.3958 24.1383 54.3958 34.9167C54.3958 45.6951 45.6951 54.3958 34.9167 54.3958C24.1383 54.3958 15.4375 45.6951 15.4375 34.9167C15.4375 24.1383 24.1383 15.4375 34.9167 15.4375ZM43.4768 28.026C43.0305 28.039 42.6067 28.2252 42.2952 28.5452L32.0521 38.7883L27.5381 34.2744C27.3798 34.1094 27.1901 33.9777 26.9801 33.887C26.7702 33.7963 26.5443 33.7484 26.3157 33.746C26.087 33.7437 25.8602 33.787 25.6485 33.8735C25.4368 33.9599 25.2444 34.0877 25.0827 34.2494C24.921 34.4111 24.7932 34.6034 24.7068 34.8152C24.6204 35.0269 24.577 35.2537 24.5794 35.4823C24.5817 35.711 24.6296 35.9369 24.7203 36.1468C24.8111 36.3567 24.9428 36.5464 25.1077 36.7048L30.8369 42.434C31.1592 42.7562 31.5963 42.9372 32.0521 42.9372C32.5078 42.9372 32.945 42.7562 33.2673 42.434L44.7256 30.9756C44.9736 30.7341 45.1429 30.4234 45.2113 30.0841C45.2798 29.7448 45.2442 29.3928 45.1092 29.0741C44.9743 28.7553 44.7463 28.4848 44.455 28.2978C44.1638 28.1108 43.8228 28.016 43.4768 28.026Z" fill="#7F63F4"/>
</g>
</g>
<defs>
<filter id="filter0_d" x="2" y="6" width="65.8333" height="65.8333" filterUnits="userSpaceOnUse" color-interpolation-filters="sRGB">
<feFlood flood-opacity="0" result="BackgroundImageFix"/>
<feColorMatrix in="SourceAlpha" type="matrix" values="0 0 0 0 0 0 0 0 0 0 0 0 0 0 0 0 0 0 127 0" result="hardAlpha"/>
<feOffset dy="4"/>
<feGaussianBlur stdDeviation="5"/>
<feColorMatrix type="matrix" values="0 0 0 0 0.498039 0 0 0 0 0.388235 0 0 0 0 0.956863 0 0 0 0.65 0"/>
<feBlend mode="normal" in2="BackgroundImageFix" result="effect1_dropShadow"/>
<feBlend mode="normal" in="SourceGraphic" in2="effect1_dropShadow" result="shape"/>
</filter>
<clipPath id="clip0">
<rect width="70" height="70" fill="white"/>
</clipPath>
</defs>
</svg>